# xmcd
#
# Track frame offsets: 
#        150
#        12936
#        29804
#        44617
#        67407
#        80724
#        96828
#        123153
#        137999
#        151042
#
# Disc length: 2274 seconds
#
# Revision: 0
# Processed by: cddbd v1.5.2PL0 Copyright (c) Steve Scherf et al.
# Submitted via: ExactAudioCopyFreeDBPlugin 1.0
#
DISCID=8d08e00a
DTITLE=The Bobby Lindstrom Band - Between A Rock And A Blue Spot
DYEAR=2012
DGENRE=Blues
TTITLE0=Corrina
TTITLE1=Got To Move
TTITLE2=Steady Rollin' Man
TTITLE3=You Don't Miss Your Water
TTITLE4=Ain't Superstitious
TTITLE5=Long Grey Mare
TTITLE6=Mean Old World
TTITLE7=Come On In My Kitchen
TTITLE8=Shake Your Moneymaker
TTITLE9=Who's Been Talkin
EXTD=
EXTT0=
EXTT1=
EXTT2=
EXTT3=
EXTT4=
EXTT5=
EXTT6=
EXTT7=
EXTT8=
EXTT9=
PLAYORDER=
